<svg xmlns="http://www.w3.org/2000/svg" viewBox="0 0 100 100" role="img" aria-label="NurseNest">
  <title>NurseNest</title>
  <defs>
    <linearGradient id="favicon-grad" x1="85%" y1="5%" x2="15%" y2="95%">
      <stop offset="0%" stop-color="#ff6ec6"/>
      <stop offset="100%" stop-color="#e3198e"/>
    </linearGradient>
  </defs>
  <path
    d="M 68 12
       C 81 10 90 24 88 43
       C 86 62 74 79 57 88
       C 52 91 48 91 45 89
       C 43 91 40 95 38 99
       L 41 100
       C 43 96 46 92 48 90
       C 33 84 8 67 8 47
       C 8 27 24 11 45 10
       C 54 9 63 12 68 12 Z"
    fill="url(#favicon-grad)"
  />
  <path
    d="M 63 22 C 59 36 59 64 38 78 C 44 64 44 29 63 22 Z"
    fill="white"
  />
</svg>
