<svg xmlns="http://www.w3.org/2000/svg" viewBox="0 0 260 52" role="img" aria-label="NurseNest">
  <title>NurseNest</title>
  <g id="logo-root">
    <g id="leaf-shape">
      <path id="leaf-outer" d="M6 40 C6 29 14.5 21 25 21 S44 29 44 40 Z" fill="#946a08"/>
      <path id="leaf-vein" d="M11 40 C11 32.5 17 27 25 27 S39 32.5 39 40 Z" fill="#FFFFFF"/>
    </g>
    <path id="wordmark" d="M56.99 35L53.63 35L53.63 18.20L56.99 18.20L64.60 29.60L64.60 29.60L64.60 18.20L67.96 18.20L67.96 35L64.60 35L56.99 23.62L56.99 23.62L56.99 35ZM75.69 35.29L75.69 35.29Q74.22 35.29 73.18 34.68Q72.14 34.06 71.58 32.86Q71.03 31.66 71.03 29.91L71.03 29.91L71.03 22.90L74.39 22.90L74.39 29.58Q74.39 30.99 74.98 31.72Q75.57 32.46 76.82 32.46L76.82 32.46Q77.61 32.46 78.23 32.10Q78.86 31.74 79.20 31.05Q79.55 30.37 79.55 29.36L79.55 29.36L79.55 22.90L82.91 22.90L82.91 35L79.96 35L79.70 33.06L79.70 33.06Q79.17 34.06 78.15 34.68Q77.13 35.29 75.69 35.29ZM89.44 35L86.08 35L86.08 22.90L89.06 22.90L89.37 25.14L89.37 25.14Q89.82 24.34 90.47 23.79Q91.12 23.24 91.98 22.93Q92.85 22.62 93.86 22.62L93.86 22.62L93.86 26.17L92.73 26.17Q92.01 26.17 91.40 26.34Q90.78 26.50 90.34 26.88Q89.90 27.25 89.67 27.88Q89.44 28.52 89.44 29.48L89.44 29.48L89.44 35ZM100.96 35.29L100.96 35.29Q99.28 35.29 98.06 34.75Q96.83 34.21 96.14 33.28Q95.44 32.36 95.32 31.18L95.32 31.18L98.68 31.18Q98.78 31.62 99.05 31.96Q99.33 32.31 99.80 32.53Q100.26 32.74 100.91 32.74L100.91 32.74Q101.54 32.74 101.93 32.56Q102.33 32.38 102.53 32.10Q102.74 31.81 102.74 31.47L102.74 31.47Q102.74 30.99 102.45 30.73Q102.16 30.46 101.61 30.30Q101.06 30.13 100.29 29.98L100.29 29.98Q99.42 29.79 98.60 29.55Q97.77 29.31 97.11 28.92Q96.45 28.52 96.06 27.92Q95.68 27.32 95.68 26.43L95.68 26.43Q95.68 25.35 96.27 24.49Q96.86 23.62 97.97 23.12Q99.09 22.62 100.65 22.62L100.65 22.62Q102.86 22.62 104.14 23.61Q105.42 24.61 105.66 26.31L105.66 26.31L102.50 26.31Q102.38 25.78 101.90 25.50Q101.42 25.21 100.62 25.21L100.62 25.21Q99.81 25.21 99.36 25.50Q98.92 25.78 98.92 26.26L98.92 26.26Q98.92 26.58 99.21 26.83Q99.50 27.08 100.04 27.26Q100.58 27.44 101.37 27.61L101.37 27.61Q102.78 27.90 103.84 28.27Q104.90 28.64 105.50 29.32Q106.10 30.01 106.10 31.30L106.10 31.30Q106.12 32.46 105.48 33.37Q104.85 34.28 103.70 34.78Q102.54 35.29 100.96 35.29ZM114.66 35.29L114.66 35.29Q112.84 35.29 111.44 34.51Q110.03 33.73 109.24 32.32Q108.45 30.92 108.45 29.07L108.45 29.07Q108.45 27.20 109.23 25.75Q110.01 24.30 111.41 23.46Q112.82 22.62 114.69 22.62L114.69 22.62Q116.49 22.62 117.84 23.41Q119.20 24.20 119.96 25.54Q120.71 26.89 120.71 28.64L120.71 28.64Q120.71 28.88 120.70 29.17Q120.69 29.46 120.64 29.79L120.64 29.79L110.85 29.79L110.85 27.75L117.30 27.75Q117.23 26.65 116.50 25.99Q115.77 25.33 114.69 25.33L114.69 25.33Q113.87 25.33 113.20 25.71Q112.53 26.10 112.14 26.84Q111.76 27.58 111.76 28.74L111.76 28.74L111.76 29.43Q111.76 30.37 112.12 31.08Q112.48 31.78 113.13 32.17Q113.78 32.55 114.64 32.55L114.64 32.55Q115.50 32.55 116.07 32.19Q116.63 31.83 116.92 31.26L116.92 31.26L120.35 31.26Q120.02 32.38 119.21 33.30Q118.41 34.21 117.26 34.75Q116.10 35.29 114.66 35.29ZM126.76 35L123.40 35L123.40 18.20L126.76 18.20L134.37 29.60L134.37 29.60L134.37 18.20L137.73 18.20L137.73 35L134.37 35L126.76 23.62L126.76 23.62L126.76 35ZM146.78 35.29L146.78 35.29Q144.95 35.29 143.55 34.51Q142.14 33.73 141.35 32.32Q140.56 30.92 140.56 29.07L140.56 29.07Q140.56 27.20 141.34 25.75Q142.12 24.30 143.52 23.46Q144.93 22.62 146.80 22.62L146.80 22.62Q148.60 22.62 149.96 23.41Q151.31 24.20 152.07 25.54Q152.82 26.89 152.82 28.64L152.82 28.64Q152.82 28.88 152.81 29.17Q152.80 29.46 152.75 29.79L152.75 29.79L142.96 29.79L142.96 27.75L149.42 27.75Q149.34 26.65 148.61 25.99Q147.88 25.33 146.80 25.33L146.80 25.33Q145.98 25.33 145.31 25.71Q144.64 26.10 144.26 26.84Q143.87 27.58 143.87 28.74L143.87 28.74L143.87 29.43Q143.87 30.37 144.23 31.08Q144.59 31.78 145.24 32.17Q145.89 32.55 146.75 32.55L146.75 32.55Q147.62 32.55 148.18 32.19Q148.74 31.83 149.03 31.26L149.03 31.26L152.46 31.26Q152.13 32.38 151.32 33.30Q150.52 34.21 149.37 34.75Q148.22 35.29 146.78 35.29ZM160.43 35.29L160.43 35.29Q158.75 35.29 157.53 34.75Q156.30 34.21 155.61 33.28Q154.91 32.36 154.79 31.18L154.79 31.18L158.15 31.18Q158.25 31.62 158.52 31.96Q158.80 32.31 159.27 32.53Q159.74 32.74 160.38 32.74L160.38 32.74Q161.01 32.74 161.40 32.56Q161.80 32.38 162.00 32.10Q162.21 31.81 162.21 31.47L162.21 31.47Q162.21 30.99 161.92 30.73Q161.63 30.46 161.08 30.30Q160.53 30.13 159.76 29.98L159.76 29.98Q158.90 29.79 158.07 29.55Q157.24 29.31 156.58 28.92Q155.92 28.52 155.54 27.92Q155.15 27.32 155.15 26.43L155.15 26.43Q155.15 25.35 155.74 24.49Q156.33 23.62 157.44 23.12Q158.56 22.62 160.12 22.62L160.12 22.62Q162.33 22.62 163.61 23.61Q164.90 24.61 165.14 26.31L165.14 26.31L161.97 26.31Q161.85 25.78 161.37 25.50Q160.89 25.21 160.10 25.21L160.10 25.21Q159.28 25.21 158.84 25.50Q158.39 25.78 158.39 26.26L158.39 26.26Q158.39 26.58 158.68 26.83Q158.97 27.08 159.51 27.26Q160.05 27.44 160.84 27.61L160.84 27.61Q162.26 27.90 163.31 28.27Q164.37 28.64 164.97 29.32Q165.57 30.01 165.57 31.30L165.57 31.30Q165.59 32.46 164.96 33.37Q164.32 34.28 163.17 34.78Q162.02 35.29 160.43 35.29ZM175.67 35L173.49 35Q172.19 35 171.22 34.59Q170.25 34.18 169.72 33.25Q169.19 32.31 169.19 30.70L169.19 30.70L169.19 25.71L167.10 25.71L167.10 22.90L169.19 22.90L169.55 19.57L172.53 19.57L172.53 22.90L175.70 22.90L175.70 25.71L172.55 25.71L172.55 30.73Q172.55 31.52 172.90 31.83Q173.25 32.14 174.09 32.14L174.09 32.14L175.67 32.14L175.67 35Z" fill="#946a08"/>
  </g>
</svg>